<?xml version="1.0" encoding="UTF-8"?>
<svg width="370px" height="220px" viewBox="0 0 370 220" version="1.1" xmlns="http://www.w3.org/2000/svg" xmlns:xlink="http://www.w3.org/1999/xlink">
    <!-- Generator: Sketch 59 (86127) - https://sketch.com -->
    <title>img-empty-cover</title>
    <desc>Created with Sketch.</desc>
    <g id="Page-1" stroke="none" stroke-width="1" fill="none" fill-rule="evenodd">
        <g id="参与项目" transform="translate(-270.000000, -170.000000)">
            <g id="项目卡片-/-" transform="translate(270.000000, 170.000000)">
                <g id="项目卡片-/-项目封面-/-">
                    <g id="Group" transform="translate(0.000000, -6.000000)">
                        <g id="img-empty-cover" transform="translate(24.000000, 0.000000)">
                            <g id="Group-51" transform="translate(126.000000, 82.000000)">
                                <ellipse id="Oval-5" fill="#151B24" cx="34.6130572" cy="34.4637294" rx="34.6130572" ry="34.4637294"></ellipse>
                                <g id="默认封面图" transform="translate(16.822430, 20.560748)" fill="#FFFFFF" fill-rule="nonzero">
                                    <path d="M4.13439396,28.6789138 C3.49938152,29.2855576 2.58781783,29.5050758 1.74625676,29.2540131 C0.904695696,29.0029503 0.262403889,28.3198706 0.0635647364,27.4644639 C-0.135274416,26.6090573 0.139881455,25.712717 0.784424918,25.1162095 L12.4854755,14.1126615 C13.4686527,13.1879719 15.015112,13.2347597 15.9405896,14.2171952 L24.5533111,23.359921 L28.1135701,19.6920716 C28.5841715,19.2074671 29.2342785,18.9391292 29.9096844,18.9507083 C30.5850903,18.9622873 31.2256172,19.2527516 31.679331,19.7532025 L36.6700513,25.2549764 C37.5666973,26.2565951 37.4866291,27.7941844 36.4907986,28.6972544 C35.494968,29.6003245 33.9568955,29.530148 33.0474388,28.5401468 L29.8075052,24.9682729 L26.2802568,28.6006663 C25.815405,29.0792967 25.1751568,29.3471869 24.5079615,29.3422234 C23.8407661,29.3372598 23.2045745,29.0598736 22.7468953,28.5743801 L14.0559264,19.3491277 L4.13439396,28.6789138 Z M13.4629574,9.78093151 C10.7620277,9.78093151 8.57249161,7.59139541 8.57249161,4.89046576 C8.57249161,2.1895361 10.7620277,0 13.4629574,0 C16.163887,0 18.3534231,2.1895361 18.3534231,4.89046576 C18.3534231,7.59139541 16.163887,9.78093151 13.4629574,9.78093151 Z" id="Shape"></path>
                                </g>
                            </g>
                            <path d="M242.29242,123.420257 C244.849846,123.420257 246.922079,121.356964 246.922079,118.809222 C246.922079,116.26148 244.849846,114.198186 242.29242,114.198186 C239.733639,114.198186 237.661405,116.26148 237.661405,118.809222 C237.661405,121.356964 239.733639,123.420257 242.29242,123.420257 Z M237.952865,185.908501 C233.332692,185.908501 229.58939,189.635653 229.58939,194.234544 C229.58939,198.833434 233.332692,202.559237 237.952865,202.559237 C242.570326,202.559237 246.312273,198.832085 246.312273,194.234544 C246.312273,189.635653 242.570326,185.908501 237.952865,185.908501 Z M127.628825,228.80294 C124.755617,228.80294 122.42859,231.119928 122.42859,233.979391 C122.42859,236.838853 124.755617,239.155841 127.628825,239.155841 C130.499322,239.155841 132.82635,236.838853 132.82635,233.979391 C132.82635,231.121277 130.499322,228.80294 127.628825,228.80294 Z M79.6259252,53.5050403 L86.4768996,49.9195789 L93.3278739,53.5050403 L92.0200222,45.909044 L97.5631449,40.5301773 L89.9030644,39.4222873 L86.4782548,32.5118064 L83.0534453,39.4222873 L75.3933648,40.5301773 L80.9364875,45.909044 L79.6259252,53.5050403 Z M111.888075,163.97726 L108.463266,157.066779 L105.038456,163.97726 L97.3783759,165.08515 L102.921499,170.464017 L101.613647,178.060013 L108.464621,174.474552 L115.315596,178.060013 L114.007744,170.464017 L119.550867,165.08515 L111.888075,163.97726 Z M137.54574,6.32277752 C137.816797,6.32277752 138.09192,6.26745049 138.357557,6.15409755 C139.387574,5.70608356 139.856504,4.51452828 139.407904,3.48895409 C138.739747,1.9640872 138.741103,0.267841457 139.410614,-1.41625932 C140.386421,-3.86819131 142.682276,-6.01649936 145.709987,-7.31061206 C152.125914,-10.0499747 151.881963,-17.6284282 150.856011,-21.2530233 C150.552426,-22.3271774 149.438381,-22.9465702 148.354151,-22.6510429 C147.275343,-22.3514673 146.642424,-21.2354806 146.940587,-20.1599772 C147.021905,-19.871197 148.84612,-13.055177 144.108038,-11.0310174 C140.089613,-9.31587949 136.999559,-6.35520873 135.629364,-2.90739022 C134.56682,-0.236849001 134.584438,2.60776995 135.67951,5.10693232 C136.014266,5.86936577 136.761029,6.32277752 137.54574,6.32277752 Z M173.784579,234.529848 C172.705771,234.829424 172.072852,235.945411 172.371015,237.020914 C172.452332,237.309694 174.276548,244.125714 169.538466,246.149874 C165.520041,247.865012 162.429987,250.825683 161.059792,254.273501 C159.997247,256.944042 160.014866,259.788661 161.109938,262.287824 C161.443338,263.048908 162.190101,263.503669 162.974812,263.503669 C163.24587,263.503669 163.520993,263.448342 163.786629,263.334989 C164.816647,262.886975 165.285576,261.69542 164.836976,260.669845 C164.16882,259.144979 164.170175,257.448733 164.839687,255.764632 C165.815493,253.3127 168.111349,251.164392 171.139059,249.870279 C177.554987,247.130917 177.311035,239.552463 176.285083,235.927868 C175.982854,234.852365 174.867453,234.234321 173.784579,234.529848 Z M182.978902,34.9527198 L189.435488,34.9527198 L189.435488,41.3801013 C189.435488,42.4987868 190.346241,43.4042609 191.468418,43.4042609 C192.590596,43.4042609 193.501348,42.4987868 193.501348,41.3801013 L193.501348,34.9527198 L199.956579,34.9527198 C201.078756,34.9527198 201.989509,34.0472458 201.989509,32.9285603 C201.989509,31.8098747 201.078756,30.9044007 199.956579,30.9044007 L193.501348,30.9044007 L193.501348,24.4770192 C193.501348,23.3583337 192.590596,22.4528596 191.468418,22.4528596 C190.346241,22.4528596 189.435488,23.3583337 189.435488,24.4770192 L189.435488,30.9044007 L182.978902,30.9044007 C181.856725,30.9044007 180.945972,31.8098747 180.945972,32.9285603 C180.945972,34.0472458 181.856725,34.9527198 182.978902,34.9527198 Z" id="Shape" fill-opacity="0.1" fill="#151B24" fill-rule="nonzero" transform="translate(161.157722, 120.389483) rotate(-75.000000) translate(-161.157722, -120.389483) "></path>
                        </g>
                    </g>
                </g>
            </g>
        </g>
    </g>
</svg>